<mxfile host="www.draw.io" modified="2019-10-31T08:03:30.615Z" agent="Mozilla/5.0 (Windows NT 10.0; Win64; x64) AppleWebKit/537.36 (KHTML, like Gecko) Chrome/77.0.3865.120 Safari/537.36" etag="7HBeRArfYpTVpgokvKNo" version="12.1.9" type="github" pages="4">
  <diagram id="ODM4DxjOuD88DcJkLqoI" name="Task 1-1">
    <mxGraphModel dx="1408" dy="748" grid="1" gridSize="10" guides="1" tooltips="1" connect="1" arrows="1" fold="1" page="1" pageScale="1" pageWidth="827" pageHeight="1169" math="0" shadow="0">
      <root>
        <mxCell id="0"/>
        <mxCell id="1" parent="0"/>
        <mxCell id="is3qvp2e45fJ6DTHjlcx-17" style="edgeStyle=orthogonalEdgeStyle;rounded=0;orthogonalLoop=1;jettySize=auto;html=1;entryX=0.5;entryY=0;entryDx=0;entryDy=0;" parent="1" source="is3qvp2e45fJ6DTHjlcx-4" target="is3qvp2e45fJ6DTHjlcx-6" edge="1">
          <mxGeometry relative="1" as="geometry"/>
        </mxCell>
        <mxCell id="is3qvp2e45fJ6DTHjlcx-4" value="начало" style="ellipse;whiteSpace=wrap;html=1;" parent="1" vertex="1">
          <mxGeometry x="355" y="20" width="120" height="80" as="geometry"/>
        </mxCell>
        <mxCell id="is3qvp2e45fJ6DTHjlcx-18" style="edgeStyle=orthogonalEdgeStyle;rounded=0;orthogonalLoop=1;jettySize=auto;html=1;entryX=0.5;entryY=0;entryDx=0;entryDy=0;" parent="1" source="is3qvp2e45fJ6DTHjlcx-6" target="is3qvp2e45fJ6DTHjlcx-7" edge="1">
          <mxGeometry relative="1" as="geometry"/>
        </mxCell>
        <mxCell id="is3qvp2e45fJ6DTHjlcx-6" value="a = 5&amp;amp;6" style="rounded=0;whiteSpace=wrap;html=1;" parent="1" vertex="1">
          <mxGeometry x="353" y="140" width="120" height="60" as="geometry"/>
        </mxCell>
        <mxCell id="is3qvp2e45fJ6DTHjlcx-22" style="edgeStyle=orthogonalEdgeStyle;rounded=0;orthogonalLoop=1;jettySize=auto;html=1;" parent="1" source="is3qvp2e45fJ6DTHjlcx-7" target="is3qvp2e45fJ6DTHjlcx-8" edge="1">
          <mxGeometry relative="1" as="geometry"/>
        </mxCell>
        <mxCell id="is3qvp2e45fJ6DTHjlcx-7" value="a" style="shape=parallelogram;perimeter=parallelogramPerimeter;whiteSpace=wrap;html=1;" parent="1" vertex="1">
          <mxGeometry x="353" y="240" width="120" height="60" as="geometry"/>
        </mxCell>
        <mxCell id="is3qvp2e45fJ6DTHjlcx-21" style="edgeStyle=orthogonalEdgeStyle;rounded=0;orthogonalLoop=1;jettySize=auto;html=1;entryX=0.5;entryY=0;entryDx=0;entryDy=0;" parent="1" source="is3qvp2e45fJ6DTHjlcx-8" target="is3qvp2e45fJ6DTHjlcx-9" edge="1">
          <mxGeometry relative="1" as="geometry"/>
        </mxCell>
        <mxCell id="is3qvp2e45fJ6DTHjlcx-8" value="b=5|6" style="rounded=0;whiteSpace=wrap;html=1;" parent="1" vertex="1">
          <mxGeometry x="350" y="340" width="120" height="60" as="geometry"/>
        </mxCell>
        <mxCell id="is3qvp2e45fJ6DTHjlcx-23" style="edgeStyle=orthogonalEdgeStyle;rounded=0;orthogonalLoop=1;jettySize=auto;html=1;" parent="1" source="is3qvp2e45fJ6DTHjlcx-9" target="is3qvp2e45fJ6DTHjlcx-10" edge="1">
          <mxGeometry relative="1" as="geometry"/>
        </mxCell>
        <mxCell id="is3qvp2e45fJ6DTHjlcx-9" value="b" style="shape=parallelogram;perimeter=parallelogramPerimeter;whiteSpace=wrap;html=1;" parent="1" vertex="1">
          <mxGeometry x="350" y="440" width="120" height="60" as="geometry"/>
        </mxCell>
        <mxCell id="is3qvp2e45fJ6DTHjlcx-24" style="edgeStyle=orthogonalEdgeStyle;rounded=0;orthogonalLoop=1;jettySize=auto;html=1;exitX=0.5;exitY=1;exitDx=0;exitDy=0;entryX=0.5;entryY=0;entryDx=0;entryDy=0;" parent="1" source="is3qvp2e45fJ6DTHjlcx-10" target="is3qvp2e45fJ6DTHjlcx-11" edge="1">
          <mxGeometry relative="1" as="geometry"/>
        </mxCell>
        <mxCell id="is3qvp2e45fJ6DTHjlcx-10" value="c = 5&amp;gt;&amp;gt;2" style="rounded=0;whiteSpace=wrap;html=1;" parent="1" vertex="1">
          <mxGeometry x="353" y="540" width="120" height="60" as="geometry"/>
        </mxCell>
        <mxCell id="is3qvp2e45fJ6DTHjlcx-25" style="edgeStyle=orthogonalEdgeStyle;rounded=0;orthogonalLoop=1;jettySize=auto;html=1;entryX=0.5;entryY=0;entryDx=0;entryDy=0;" parent="1" source="is3qvp2e45fJ6DTHjlcx-11" target="is3qvp2e45fJ6DTHjlcx-12" edge="1">
          <mxGeometry relative="1" as="geometry"/>
        </mxCell>
        <mxCell id="is3qvp2e45fJ6DTHjlcx-11" value="c" style="shape=parallelogram;perimeter=parallelogramPerimeter;whiteSpace=wrap;html=1;" parent="1" vertex="1">
          <mxGeometry x="353" y="640" width="120" height="60" as="geometry"/>
        </mxCell>
        <mxCell id="is3qvp2e45fJ6DTHjlcx-26" style="edgeStyle=orthogonalEdgeStyle;rounded=0;orthogonalLoop=1;jettySize=auto;html=1;exitX=0.5;exitY=1;exitDx=0;exitDy=0;entryX=0.5;entryY=0;entryDx=0;entryDy=0;" parent="1" source="is3qvp2e45fJ6DTHjlcx-12" target="is3qvp2e45fJ6DTHjlcx-13" edge="1">
          <mxGeometry relative="1" as="geometry"/>
        </mxCell>
        <mxCell id="is3qvp2e45fJ6DTHjlcx-12" value="d = 5&amp;lt;&amp;lt;2" style="rounded=0;whiteSpace=wrap;html=1;" parent="1" vertex="1">
          <mxGeometry x="350" y="740" width="120" height="60" as="geometry"/>
        </mxCell>
        <mxCell id="is3qvp2e45fJ6DTHjlcx-27" style="edgeStyle=orthogonalEdgeStyle;rounded=0;orthogonalLoop=1;jettySize=auto;html=1;exitX=0.5;exitY=1;exitDx=0;exitDy=0;entryX=0.5;entryY=0;entryDx=0;entryDy=0;" parent="1" source="is3qvp2e45fJ6DTHjlcx-13" target="is3qvp2e45fJ6DTHjlcx-16" edge="1">
          <mxGeometry relative="1" as="geometry"/>
        </mxCell>
        <mxCell id="is3qvp2e45fJ6DTHjlcx-13" value="d" style="shape=parallelogram;perimeter=parallelogramPerimeter;whiteSpace=wrap;html=1;" parent="1" vertex="1">
          <mxGeometry x="350" y="840" width="120" height="60" as="geometry"/>
        </mxCell>
        <mxCell id="is3qvp2e45fJ6DTHjlcx-16" value="конец" style="ellipse;whiteSpace=wrap;html=1;" parent="1" vertex="1">
          <mxGeometry x="350" y="920" width="120" height="80" as="geometry"/>
        </mxCell>
        <mxCell id="is3qvp2e45fJ6DTHjlcx-30" value="Вывод" style="text;html=1;resizable=0;autosize=1;align=center;verticalAlign=middle;points=[];fillColor=none;strokeColor=none;rounded=0;" parent="1" vertex="1">
          <mxGeometry x="275" y="840" width="50" height="20" as="geometry"/>
        </mxCell>
        <mxCell id="is3qvp2e45fJ6DTHjlcx-31" value="Вывод" style="text;html=1;resizable=0;autosize=1;align=center;verticalAlign=middle;points=[];fillColor=none;strokeColor=none;rounded=0;" parent="1" vertex="1">
          <mxGeometry x="275" y="630" width="50" height="20" as="geometry"/>
        </mxCell>
        <mxCell id="is3qvp2e45fJ6DTHjlcx-32" value="Вывод" style="text;html=1;resizable=0;autosize=1;align=center;verticalAlign=middle;points=[];fillColor=none;strokeColor=none;rounded=0;" parent="1" vertex="1">
          <mxGeometry x="275" y="440" width="50" height="20" as="geometry"/>
        </mxCell>
        <mxCell id="is3qvp2e45fJ6DTHjlcx-33" value="Вывод" style="text;html=1;resizable=0;autosize=1;align=center;verticalAlign=middle;points=[];fillColor=none;strokeColor=none;rounded=0;" parent="1" vertex="1">
          <mxGeometry x="275" y="240" width="50" height="20" as="geometry"/>
        </mxCell>
      </root>
    </mxGraphModel>
  </diagram>
  <diagram id="GJCTe30sxL6CTSNuxpWm" name="Task 1-2">
    <mxGraphModel dx="1408" dy="748" grid="1" gridSize="10" guides="1" tooltips="1" connect="1" arrows="1" fold="1" page="1" pageScale="1" pageWidth="827" pageHeight="1169" math="0" shadow="0">
      <root>
        <mxCell id="flL7r26VuxHhf7VOeU3X-0"/>
        <mxCell id="flL7r26VuxHhf7VOeU3X-1" parent="flL7r26VuxHhf7VOeU3X-0"/>
        <mxCell id="TLsSMrYCfAG0vc9mx4FO-5" style="edgeStyle=orthogonalEdgeStyle;rounded=0;orthogonalLoop=1;jettySize=auto;html=1;exitX=0.5;exitY=1;exitDx=0;exitDy=0;entryX=0.5;entryY=0;entryDx=0;entryDy=0;" parent="flL7r26VuxHhf7VOeU3X-1" source="YPeiTAW1Tnx8dzpvpoLn-0" target="YPeiTAW1Tnx8dzpvpoLn-4" edge="1">
          <mxGeometry relative="1" as="geometry"/>
        </mxCell>
        <mxCell id="YPeiTAW1Tnx8dzpvpoLn-0" value="Начало" style="ellipse;whiteSpace=wrap;html=1;" parent="flL7r26VuxHhf7VOeU3X-1" vertex="1">
          <mxGeometry x="353" y="250" width="120" height="80" as="geometry"/>
        </mxCell>
        <mxCell id="TLsSMrYCfAG0vc9mx4FO-6" style="edgeStyle=orthogonalEdgeStyle;rounded=0;orthogonalLoop=1;jettySize=auto;html=1;exitX=0.5;exitY=1;exitDx=0;exitDy=0;entryX=0.5;entryY=0;entryDx=0;entryDy=0;" parent="flL7r26VuxHhf7VOeU3X-1" source="YPeiTAW1Tnx8dzpvpoLn-4" target="TLsSMrYCfAG0vc9mx4FO-0" edge="1">
          <mxGeometry relative="1" as="geometry"/>
        </mxCell>
        <mxCell id="YPeiTAW1Tnx8dzpvpoLn-4" value="ввод&lt;br&gt;x1 y1 x2 y2" style="shape=parallelogram;perimeter=parallelogramPerimeter;whiteSpace=wrap;html=1;" parent="flL7r26VuxHhf7VOeU3X-1" vertex="1">
          <mxGeometry x="353" y="350" width="120" height="60" as="geometry"/>
        </mxCell>
        <mxCell id="TLsSMrYCfAG0vc9mx4FO-7" style="edgeStyle=orthogonalEdgeStyle;rounded=0;orthogonalLoop=1;jettySize=auto;html=1;exitX=0;exitY=0.5;exitDx=0;exitDy=0;entryX=0.5;entryY=0;entryDx=0;entryDy=0;" parent="flL7r26VuxHhf7VOeU3X-1" source="TLsSMrYCfAG0vc9mx4FO-0" target="TLsSMrYCfAG0vc9mx4FO-2" edge="1">
          <mxGeometry relative="1" as="geometry"/>
        </mxCell>
        <mxCell id="TLsSMrYCfAG0vc9mx4FO-8" style="edgeStyle=orthogonalEdgeStyle;rounded=0;orthogonalLoop=1;jettySize=auto;html=1;exitX=1;exitY=0.5;exitDx=0;exitDy=0;entryX=0.5;entryY=0;entryDx=0;entryDy=0;" parent="flL7r26VuxHhf7VOeU3X-1" source="TLsSMrYCfAG0vc9mx4FO-0" target="TLsSMrYCfAG0vc9mx4FO-3" edge="1">
          <mxGeometry relative="1" as="geometry"/>
        </mxCell>
        <mxCell id="TLsSMrYCfAG0vc9mx4FO-0" value="x1 = x2" style="rhombus;whiteSpace=wrap;html=1;" parent="flL7r26VuxHhf7VOeU3X-1" vertex="1">
          <mxGeometry x="333" y="430" width="160" height="80" as="geometry"/>
        </mxCell>
        <mxCell id="TLsSMrYCfAG0vc9mx4FO-17" style="edgeStyle=orthogonalEdgeStyle;rounded=0;orthogonalLoop=1;jettySize=auto;html=1;" parent="flL7r26VuxHhf7VOeU3X-1" source="TLsSMrYCfAG0vc9mx4FO-2" target="TLsSMrYCfAG0vc9mx4FO-12" edge="1">
          <mxGeometry relative="1" as="geometry">
            <Array as="points">
              <mxPoint x="120" y="760"/>
              <mxPoint x="413" y="760"/>
            </Array>
          </mxGeometry>
        </mxCell>
        <mxCell id="TLsSMrYCfAG0vc9mx4FO-2" value="вывод x= x1" style="shape=parallelogram;perimeter=parallelogramPerimeter;whiteSpace=wrap;html=1;" parent="flL7r26VuxHhf7VOeU3X-1" vertex="1">
          <mxGeometry x="60" y="670" width="120" height="60" as="geometry"/>
        </mxCell>
        <mxCell id="TLsSMrYCfAG0vc9mx4FO-27" style="edgeStyle=orthogonalEdgeStyle;rounded=0;orthogonalLoop=1;jettySize=auto;html=1;exitX=1;exitY=0.5;exitDx=0;exitDy=0;entryX=0.5;entryY=0;entryDx=0;entryDy=0;" parent="flL7r26VuxHhf7VOeU3X-1" source="TLsSMrYCfAG0vc9mx4FO-3" target="TLsSMrYCfAG0vc9mx4FO-10" edge="1">
          <mxGeometry relative="1" as="geometry"/>
        </mxCell>
        <mxCell id="TLsSMrYCfAG0vc9mx4FO-28" style="edgeStyle=orthogonalEdgeStyle;rounded=0;orthogonalLoop=1;jettySize=auto;html=1;exitX=0;exitY=0.5;exitDx=0;exitDy=0;entryX=0.5;entryY=0;entryDx=0;entryDy=0;" parent="flL7r26VuxHhf7VOeU3X-1" source="TLsSMrYCfAG0vc9mx4FO-3" target="TLsSMrYCfAG0vc9mx4FO-4" edge="1">
          <mxGeometry relative="1" as="geometry"/>
        </mxCell>
        <mxCell id="TLsSMrYCfAG0vc9mx4FO-3" value="y1 = y2" style="rhombus;whiteSpace=wrap;html=1;" parent="flL7r26VuxHhf7VOeU3X-1" vertex="1">
          <mxGeometry x="515" y="490" width="160" height="80" as="geometry"/>
        </mxCell>
        <mxCell id="TLsSMrYCfAG0vc9mx4FO-30" style="edgeStyle=orthogonalEdgeStyle;rounded=0;orthogonalLoop=1;jettySize=auto;html=1;exitX=0.5;exitY=1;exitDx=0;exitDy=0;" parent="flL7r26VuxHhf7VOeU3X-1" source="TLsSMrYCfAG0vc9mx4FO-4" target="TLsSMrYCfAG0vc9mx4FO-12" edge="1">
          <mxGeometry relative="1" as="geometry"/>
        </mxCell>
        <mxCell id="TLsSMrYCfAG0vc9mx4FO-4" value="вывод y= y1" style="shape=parallelogram;perimeter=parallelogramPerimeter;whiteSpace=wrap;html=1;" parent="flL7r26VuxHhf7VOeU3X-1" vertex="1">
          <mxGeometry x="353" y="670" width="120" height="60" as="geometry"/>
        </mxCell>
        <mxCell id="TLsSMrYCfAG0vc9mx4FO-14" style="edgeStyle=orthogonalEdgeStyle;rounded=0;orthogonalLoop=1;jettySize=auto;html=1;exitX=0.5;exitY=1;exitDx=0;exitDy=0;" parent="flL7r26VuxHhf7VOeU3X-1" source="TLsSMrYCfAG0vc9mx4FO-10" target="TLsSMrYCfAG0vc9mx4FO-11" edge="1">
          <mxGeometry relative="1" as="geometry"/>
        </mxCell>
        <mxCell id="TLsSMrYCfAG0vc9mx4FO-10" value="k = (y2-y1) / (x2-x1)&lt;br&gt;b = y1 - kx1" style="rounded=0;whiteSpace=wrap;html=1;" parent="flL7r26VuxHhf7VOeU3X-1" vertex="1">
          <mxGeometry x="661.5" y="570" width="120" height="60" as="geometry"/>
        </mxCell>
        <mxCell id="TLsSMrYCfAG0vc9mx4FO-31" style="edgeStyle=orthogonalEdgeStyle;rounded=0;orthogonalLoop=1;jettySize=auto;html=1;exitX=0.5;exitY=1;exitDx=0;exitDy=0;" parent="flL7r26VuxHhf7VOeU3X-1" source="TLsSMrYCfAG0vc9mx4FO-11" target="TLsSMrYCfAG0vc9mx4FO-12" edge="1">
          <mxGeometry relative="1" as="geometry">
            <Array as="points">
              <mxPoint x="722" y="760"/>
              <mxPoint x="413" y="760"/>
            </Array>
          </mxGeometry>
        </mxCell>
        <mxCell id="TLsSMrYCfAG0vc9mx4FO-11" value="вывод y = kx + b" style="shape=parallelogram;perimeter=parallelogramPerimeter;whiteSpace=wrap;html=1;" parent="flL7r26VuxHhf7VOeU3X-1" vertex="1">
          <mxGeometry x="661.5" y="670" width="120" height="60" as="geometry"/>
        </mxCell>
        <mxCell id="TLsSMrYCfAG0vc9mx4FO-12" value="конец" style="ellipse;whiteSpace=wrap;html=1;" parent="flL7r26VuxHhf7VOeU3X-1" vertex="1">
          <mxGeometry x="353" y="790" width="120" height="80" as="geometry"/>
        </mxCell>
        <mxCell id="TLsSMrYCfAG0vc9mx4FO-19" value="да" style="text;html=1;resizable=0;autosize=1;align=center;verticalAlign=middle;points=[];fillColor=none;strokeColor=none;rounded=0;" parent="flL7r26VuxHhf7VOeU3X-1" vertex="1">
          <mxGeometry x="310" y="450" width="30" height="20" as="geometry"/>
        </mxCell>
        <mxCell id="TLsSMrYCfAG0vc9mx4FO-20" value="нет" style="text;html=1;resizable=0;autosize=1;align=center;verticalAlign=middle;points=[];fillColor=none;strokeColor=none;rounded=0;" parent="flL7r26VuxHhf7VOeU3X-1" vertex="1">
          <mxGeometry x="500" y="450" width="30" height="20" as="geometry"/>
        </mxCell>
        <mxCell id="TLsSMrYCfAG0vc9mx4FO-21" value="да" style="text;html=1;resizable=0;autosize=1;align=center;verticalAlign=middle;points=[];fillColor=none;strokeColor=none;rounded=0;" parent="flL7r26VuxHhf7VOeU3X-1" vertex="1">
          <mxGeometry x="500" y="500" width="30" height="20" as="geometry"/>
        </mxCell>
        <mxCell id="TLsSMrYCfAG0vc9mx4FO-22" value="нет" style="text;html=1;resizable=0;autosize=1;align=center;verticalAlign=middle;points=[];fillColor=none;strokeColor=none;rounded=0;" parent="flL7r26VuxHhf7VOeU3X-1" vertex="1">
          <mxGeometry x="661.5" y="500" width="30" height="20" as="geometry"/>
        </mxCell>
        <mxCell id="rCvwDh4r0NWdSZlPjT63-1" value="&lt;h3 style=&quot;box-sizing: border-box ; font-family: &amp;#34;roboto&amp;#34; , &amp;#34;san francisco&amp;#34; , &amp;#34;helvetica neue&amp;#34; , &amp;#34;helvetica&amp;#34; , &amp;#34;arial&amp;#34; ; font-weight: 500 ; line-height: 24px ; color: rgb(80 , 102 , 123) ; margin-top: 20px ; margin-bottom: 10px ; font-size: 17px ; background-color: rgb(255 , 255 , 255)&quot;&gt;2. По введенным пользователем координатам двух точек вывести уравнение прямой вида&amp;nbsp;&lt;code style=&quot;box-sizing: border-box ; font-family: monospace , monospace ; font-size: 1em ; color: rgb(199 , 37 , 78) ; background-color: rgb(249 , 242 , 244) ; border-radius: 4px ; padding: 2px 4px&quot;&gt;y = kx + b&lt;/code&gt;, проходящей через эти точки.&lt;/h3&gt;" style="text;html=1;strokeColor=none;fillColor=none;spacing=5;spacingTop=-20;whiteSpace=wrap;overflow=hidden;rounded=0;" vertex="1" parent="flL7r26VuxHhf7VOeU3X-1">
          <mxGeometry x="30" y="130" width="440" height="120" as="geometry"/>
        </mxCell>
      </root>
    </mxGraphModel>
  </diagram>
  <diagram id="1RXKmrwJ1HiOoTw9SNLI" name="Task 1-6">
    <mxGraphModel dx="2011" dy="1069" grid="1" gridSize="10" guides="1" tooltips="1" connect="1" arrows="1" fold="1" page="1" pageScale="1" pageWidth="1654" pageHeight="1169" math="0" shadow="0">
      <root>
        <mxCell id="n-EAQ4eWrOrmdoL7Q0ur-0"/>
        <mxCell id="n-EAQ4eWrOrmdoL7Q0ur-1" parent="n-EAQ4eWrOrmdoL7Q0ur-0"/>
        <mxCell id="n-EAQ4eWrOrmdoL7Q0ur-22" style="edgeStyle=orthogonalEdgeStyle;rounded=0;orthogonalLoop=1;jettySize=auto;html=1;entryX=0.5;entryY=0;entryDx=0;entryDy=0;" parent="n-EAQ4eWrOrmdoL7Q0ur-1" source="n-EAQ4eWrOrmdoL7Q0ur-2" target="n-EAQ4eWrOrmdoL7Q0ur-3" edge="1">
          <mxGeometry relative="1" as="geometry"/>
        </mxCell>
        <mxCell id="n-EAQ4eWrOrmdoL7Q0ur-2" value="начало" style="ellipse;whiteSpace=wrap;html=1;" parent="n-EAQ4eWrOrmdoL7Q0ur-1" vertex="1">
          <mxGeometry x="453" y="10" width="120" height="60" as="geometry"/>
        </mxCell>
        <mxCell id="n-EAQ4eWrOrmdoL7Q0ur-23" value="" style="edgeStyle=orthogonalEdgeStyle;rounded=0;orthogonalLoop=1;jettySize=auto;html=1;" parent="n-EAQ4eWrOrmdoL7Q0ur-1" source="n-EAQ4eWrOrmdoL7Q0ur-3" target="n-EAQ4eWrOrmdoL7Q0ur-4" edge="1">
          <mxGeometry relative="1" as="geometry">
            <Array as="points">
              <mxPoint x="510" y="180"/>
              <mxPoint x="510" y="180"/>
            </Array>
          </mxGeometry>
        </mxCell>
        <mxCell id="n-EAQ4eWrOrmdoL7Q0ur-3" value="ввод&amp;nbsp;&lt;br&gt;float&lt;br&gt;a, b c&amp;nbsp;" style="shape=parallelogram;perimeter=parallelogramPerimeter;whiteSpace=wrap;html=1;" parent="n-EAQ4eWrOrmdoL7Q0ur-1" vertex="1">
          <mxGeometry x="453" y="110" width="120" height="60" as="geometry"/>
        </mxCell>
        <mxCell id="n-EAQ4eWrOrmdoL7Q0ur-24" style="edgeStyle=orthogonalEdgeStyle;rounded=0;orthogonalLoop=1;jettySize=auto;html=1;entryX=0.5;entryY=0;entryDx=0;entryDy=0;" parent="n-EAQ4eWrOrmdoL7Q0ur-1" source="n-EAQ4eWrOrmdoL7Q0ur-4" target="n-EAQ4eWrOrmdoL7Q0ur-14" edge="1">
          <mxGeometry relative="1" as="geometry"/>
        </mxCell>
        <mxCell id="n-EAQ4eWrOrmdoL7Q0ur-25" style="edgeStyle=orthogonalEdgeStyle;rounded=0;orthogonalLoop=1;jettySize=auto;html=1;exitX=1;exitY=0.5;exitDx=0;exitDy=0;entryX=0.5;entryY=0;entryDx=0;entryDy=0;" parent="n-EAQ4eWrOrmdoL7Q0ur-1" source="n-EAQ4eWrOrmdoL7Q0ur-4" target="n-EAQ4eWrOrmdoL7Q0ur-8" edge="1">
          <mxGeometry relative="1" as="geometry"/>
        </mxCell>
        <mxCell id="n-EAQ4eWrOrmdoL7Q0ur-4" value="a или b или c &amp;lt;=0" style="rhombus;whiteSpace=wrap;html=1;" parent="n-EAQ4eWrOrmdoL7Q0ur-1" vertex="1">
          <mxGeometry x="395" y="190" width="230" height="80" as="geometry"/>
        </mxCell>
        <mxCell id="n-EAQ4eWrOrmdoL7Q0ur-26" style="edgeStyle=orthogonalEdgeStyle;rounded=0;orthogonalLoop=1;jettySize=auto;html=1;exitX=0;exitY=0.5;exitDx=0;exitDy=0;entryX=0.5;entryY=0;entryDx=0;entryDy=0;" parent="n-EAQ4eWrOrmdoL7Q0ur-1" source="n-EAQ4eWrOrmdoL7Q0ur-8" target="n-EAQ4eWrOrmdoL7Q0ur-18" edge="1">
          <mxGeometry relative="1" as="geometry"/>
        </mxCell>
        <mxCell id="n-EAQ4eWrOrmdoL7Q0ur-27" style="edgeStyle=orthogonalEdgeStyle;rounded=0;orthogonalLoop=1;jettySize=auto;html=1;exitX=1;exitY=0.5;exitDx=0;exitDy=0;entryX=0.5;entryY=0;entryDx=0;entryDy=0;" parent="n-EAQ4eWrOrmdoL7Q0ur-1" source="n-EAQ4eWrOrmdoL7Q0ur-8" target="n-EAQ4eWrOrmdoL7Q0ur-15" edge="1">
          <mxGeometry relative="1" as="geometry"/>
        </mxCell>
        <mxCell id="n-EAQ4eWrOrmdoL7Q0ur-8" value="a &amp;gt;= b+c или b &amp;gt;= a+c &lt;br&gt;или с&amp;gt;=a+b" style="rhombus;whiteSpace=wrap;html=1;" parent="n-EAQ4eWrOrmdoL7Q0ur-1" vertex="1">
          <mxGeometry x="573" y="280" width="230" height="80" as="geometry"/>
        </mxCell>
        <mxCell id="n-EAQ4eWrOrmdoL7Q0ur-43" style="edgeStyle=orthogonalEdgeStyle;rounded=0;orthogonalLoop=1;jettySize=auto;html=1;entryX=0.5;entryY=0;entryDx=0;entryDy=0;" parent="n-EAQ4eWrOrmdoL7Q0ur-1" source="n-EAQ4eWrOrmdoL7Q0ur-14" target="n-EAQ4eWrOrmdoL7Q0ur-37" edge="1">
          <mxGeometry relative="1" as="geometry">
            <Array as="points">
              <mxPoint x="195" y="840"/>
              <mxPoint x="710" y="840"/>
            </Array>
          </mxGeometry>
        </mxCell>
        <mxCell id="n-EAQ4eWrOrmdoL7Q0ur-14" value="конец программы, &lt;br&gt;вы ввели&amp;nbsp; ноль или &lt;br&gt;отрицательного число" style="shape=parallelogram;perimeter=parallelogramPerimeter;whiteSpace=wrap;html=1;" parent="n-EAQ4eWrOrmdoL7Q0ur-1" vertex="1">
          <mxGeometry x="100" y="710" width="190" height="60" as="geometry"/>
        </mxCell>
        <mxCell id="n-EAQ4eWrOrmdoL7Q0ur-28" style="edgeStyle=orthogonalEdgeStyle;rounded=0;orthogonalLoop=1;jettySize=auto;html=1;exitX=0;exitY=0.5;exitDx=0;exitDy=0;entryX=0.608;entryY=0;entryDx=0;entryDy=0;entryPerimeter=0;" parent="n-EAQ4eWrOrmdoL7Q0ur-1" source="n-EAQ4eWrOrmdoL7Q0ur-15" target="n-EAQ4eWrOrmdoL7Q0ur-19" edge="1">
          <mxGeometry relative="1" as="geometry">
            <Array as="points">
              <mxPoint x="533" y="440"/>
            </Array>
          </mxGeometry>
        </mxCell>
        <mxCell id="n-EAQ4eWrOrmdoL7Q0ur-29" style="edgeStyle=orthogonalEdgeStyle;rounded=0;orthogonalLoop=1;jettySize=auto;html=1;exitX=1;exitY=0.5;exitDx=0;exitDy=0;" parent="n-EAQ4eWrOrmdoL7Q0ur-1" source="n-EAQ4eWrOrmdoL7Q0ur-15" target="n-EAQ4eWrOrmdoL7Q0ur-16" edge="1">
          <mxGeometry relative="1" as="geometry">
            <Array as="points">
              <mxPoint x="955" y="440"/>
            </Array>
          </mxGeometry>
        </mxCell>
        <mxCell id="n-EAQ4eWrOrmdoL7Q0ur-15" value="a =b и b =c" style="rhombus;whiteSpace=wrap;html=1;" parent="n-EAQ4eWrOrmdoL7Q0ur-1" vertex="1">
          <mxGeometry x="710" y="400" width="230" height="80" as="geometry"/>
        </mxCell>
        <mxCell id="n-EAQ4eWrOrmdoL7Q0ur-30" style="edgeStyle=orthogonalEdgeStyle;rounded=0;orthogonalLoop=1;jettySize=auto;html=1;exitX=0;exitY=0.5;exitDx=0;exitDy=0;entryX=0.5;entryY=0;entryDx=0;entryDy=0;" parent="n-EAQ4eWrOrmdoL7Q0ur-1" source="n-EAQ4eWrOrmdoL7Q0ur-16" target="n-EAQ4eWrOrmdoL7Q0ur-20" edge="1">
          <mxGeometry relative="1" as="geometry"/>
        </mxCell>
        <mxCell id="n-EAQ4eWrOrmdoL7Q0ur-31" style="edgeStyle=orthogonalEdgeStyle;rounded=0;orthogonalLoop=1;jettySize=auto;html=1;exitX=1;exitY=0.5;exitDx=0;exitDy=0;entryX=0.5;entryY=0;entryDx=0;entryDy=0;" parent="n-EAQ4eWrOrmdoL7Q0ur-1" source="n-EAQ4eWrOrmdoL7Q0ur-16" target="n-EAQ4eWrOrmdoL7Q0ur-17" edge="1">
          <mxGeometry relative="1" as="geometry"/>
        </mxCell>
        <mxCell id="n-EAQ4eWrOrmdoL7Q0ur-16" value="a =b или b =c или a=c" style="rhombus;whiteSpace=wrap;html=1;" parent="n-EAQ4eWrOrmdoL7Q0ur-1" vertex="1">
          <mxGeometry x="840" y="504" width="230" height="80" as="geometry"/>
        </mxCell>
        <mxCell id="n-EAQ4eWrOrmdoL7Q0ur-33" style="edgeStyle=orthogonalEdgeStyle;rounded=0;orthogonalLoop=1;jettySize=auto;html=1;exitX=0;exitY=0.5;exitDx=0;exitDy=0;entryX=0.617;entryY=0;entryDx=0;entryDy=0;entryPerimeter=0;" parent="n-EAQ4eWrOrmdoL7Q0ur-1" source="n-EAQ4eWrOrmdoL7Q0ur-17" target="n-EAQ4eWrOrmdoL7Q0ur-21" edge="1">
          <mxGeometry relative="1" as="geometry"/>
        </mxCell>
        <mxCell id="n-EAQ4eWrOrmdoL7Q0ur-36" style="edgeStyle=orthogonalEdgeStyle;rounded=0;orthogonalLoop=1;jettySize=auto;html=1;exitX=1;exitY=0.5;exitDx=0;exitDy=0;entryX=0.6;entryY=-0.017;entryDx=0;entryDy=0;entryPerimeter=0;" parent="n-EAQ4eWrOrmdoL7Q0ur-1" source="n-EAQ4eWrOrmdoL7Q0ur-17" target="n-EAQ4eWrOrmdoL7Q0ur-35" edge="1">
          <mxGeometry relative="1" as="geometry"/>
        </mxCell>
        <mxCell id="n-EAQ4eWrOrmdoL7Q0ur-17" value="a**2 =b**2 + c**2 или b**2 =c**2 +a**2&amp;nbsp; или c**2=a**2 + b**2" style="rhombus;whiteSpace=wrap;html=1;" parent="n-EAQ4eWrOrmdoL7Q0ur-1" vertex="1">
          <mxGeometry x="1050" y="570" width="260" height="130" as="geometry"/>
        </mxCell>
        <mxCell id="n-EAQ4eWrOrmdoL7Q0ur-42" style="edgeStyle=orthogonalEdgeStyle;rounded=0;orthogonalLoop=1;jettySize=auto;html=1;entryX=0.498;entryY=0.024;entryDx=0;entryDy=0;entryPerimeter=0;" parent="n-EAQ4eWrOrmdoL7Q0ur-1" source="n-EAQ4eWrOrmdoL7Q0ur-18" edge="1" target="n-EAQ4eWrOrmdoL7Q0ur-37">
          <mxGeometry relative="1" as="geometry">
            <mxPoint x="710" y="913" as="targetPoint"/>
            <Array as="points">
              <mxPoint x="370" y="840"/>
              <mxPoint x="710" y="840"/>
            </Array>
          </mxGeometry>
        </mxCell>
        <mxCell id="n-EAQ4eWrOrmdoL7Q0ur-18" value="не треугольник" style="shape=parallelogram;perimeter=parallelogramPerimeter;whiteSpace=wrap;html=1;" parent="n-EAQ4eWrOrmdoL7Q0ur-1" vertex="1">
          <mxGeometry x="310" y="710" width="120" height="60" as="geometry"/>
        </mxCell>
        <mxCell id="n-EAQ4eWrOrmdoL7Q0ur-45" style="edgeStyle=orthogonalEdgeStyle;rounded=0;orthogonalLoop=1;jettySize=auto;html=1;entryX=0.5;entryY=0;entryDx=0;entryDy=0;" parent="n-EAQ4eWrOrmdoL7Q0ur-1" source="n-EAQ4eWrOrmdoL7Q0ur-19" target="n-EAQ4eWrOrmdoL7Q0ur-37" edge="1">
          <mxGeometry relative="1" as="geometry">
            <Array as="points">
              <mxPoint x="530" y="840"/>
              <mxPoint x="710" y="840"/>
            </Array>
          </mxGeometry>
        </mxCell>
        <mxCell id="n-EAQ4eWrOrmdoL7Q0ur-19" value="Равносторонний" style="shape=parallelogram;perimeter=parallelogramPerimeter;whiteSpace=wrap;html=1;" parent="n-EAQ4eWrOrmdoL7Q0ur-1" vertex="1">
          <mxGeometry x="460" y="710" width="120" height="60" as="geometry"/>
        </mxCell>
        <mxCell id="n-EAQ4eWrOrmdoL7Q0ur-47" style="edgeStyle=orthogonalEdgeStyle;rounded=0;orthogonalLoop=1;jettySize=auto;html=1;entryX=0.5;entryY=0;entryDx=0;entryDy=0;" parent="n-EAQ4eWrOrmdoL7Q0ur-1" source="n-EAQ4eWrOrmdoL7Q0ur-20" target="n-EAQ4eWrOrmdoL7Q0ur-37" edge="1">
          <mxGeometry relative="1" as="geometry"/>
        </mxCell>
        <mxCell id="n-EAQ4eWrOrmdoL7Q0ur-20" value="Равнобедренный" style="shape=parallelogram;perimeter=parallelogramPerimeter;whiteSpace=wrap;html=1;" parent="n-EAQ4eWrOrmdoL7Q0ur-1" vertex="1">
          <mxGeometry x="650" y="710" width="120" height="56" as="geometry"/>
        </mxCell>
        <mxCell id="n-EAQ4eWrOrmdoL7Q0ur-39" style="edgeStyle=orthogonalEdgeStyle;rounded=0;orthogonalLoop=1;jettySize=auto;html=1;entryX=0.5;entryY=0;entryDx=0;entryDy=0;" parent="n-EAQ4eWrOrmdoL7Q0ur-1" edge="1" target="n-EAQ4eWrOrmdoL7Q0ur-37">
          <mxGeometry relative="1" as="geometry">
            <mxPoint x="867" y="765" as="sourcePoint"/>
            <mxPoint x="710" y="905" as="targetPoint"/>
            <Array as="points">
              <mxPoint x="868" y="765"/>
              <mxPoint x="868" y="840"/>
              <mxPoint x="710" y="840"/>
            </Array>
          </mxGeometry>
        </mxCell>
        <mxCell id="n-EAQ4eWrOrmdoL7Q0ur-21" value="Прямоугольный" style="shape=parallelogram;perimeter=parallelogramPerimeter;whiteSpace=wrap;html=1;" parent="n-EAQ4eWrOrmdoL7Q0ur-1" vertex="1">
          <mxGeometry x="803" y="710" width="120" height="60" as="geometry"/>
        </mxCell>
        <mxCell id="n-EAQ4eWrOrmdoL7Q0ur-38" style="edgeStyle=orthogonalEdgeStyle;rounded=0;orthogonalLoop=1;jettySize=auto;html=1;exitX=0.5;exitY=1;exitDx=0;exitDy=0;entryX=0.5;entryY=0;entryDx=0;entryDy=0;" parent="n-EAQ4eWrOrmdoL7Q0ur-1" source="n-EAQ4eWrOrmdoL7Q0ur-35" target="n-EAQ4eWrOrmdoL7Q0ur-37" edge="1">
          <mxGeometry relative="1" as="geometry">
            <mxPoint x="710" y="900" as="targetPoint"/>
            <Array as="points">
              <mxPoint x="1410" y="840"/>
              <mxPoint x="710" y="840"/>
            </Array>
          </mxGeometry>
        </mxCell>
        <mxCell id="n-EAQ4eWrOrmdoL7Q0ur-35" value="Разносторонний" style="shape=parallelogram;perimeter=parallelogramPerimeter;whiteSpace=wrap;html=1;" parent="n-EAQ4eWrOrmdoL7Q0ur-1" vertex="1">
          <mxGeometry x="1350" y="710" width="120" height="60" as="geometry"/>
        </mxCell>
        <mxCell id="n-EAQ4eWrOrmdoL7Q0ur-37" value="конец" style="ellipse;whiteSpace=wrap;html=1;" parent="n-EAQ4eWrOrmdoL7Q0ur-1" vertex="1">
          <mxGeometry x="650" y="910" width="120" height="60" as="geometry"/>
        </mxCell>
        <mxCell id="HBdPVVHpOy0N1GLrJOeW-0" value="да" style="text;html=1;resizable=0;autosize=1;align=center;verticalAlign=middle;points=[];fillColor=none;strokeColor=none;rounded=0;" parent="n-EAQ4eWrOrmdoL7Q0ur-1" vertex="1">
          <mxGeometry x="395" y="190" width="30" height="20" as="geometry"/>
        </mxCell>
        <mxCell id="HBdPVVHpOy0N1GLrJOeW-1" value="нет" style="text;html=1;resizable=0;autosize=1;align=center;verticalAlign=middle;points=[];fillColor=none;strokeColor=none;rounded=0;" parent="n-EAQ4eWrOrmdoL7Q0ur-1" vertex="1">
          <mxGeometry x="585" y="190" width="30" height="20" as="geometry"/>
        </mxCell>
        <mxCell id="HBdPVVHpOy0N1GLrJOeW-2" value="да" style="text;html=1;resizable=0;autosize=1;align=center;verticalAlign=middle;points=[];fillColor=none;strokeColor=none;rounded=0;" parent="n-EAQ4eWrOrmdoL7Q0ur-1" vertex="1">
          <mxGeometry x="585" y="280" width="30" height="20" as="geometry"/>
        </mxCell>
        <mxCell id="HBdPVVHpOy0N1GLrJOeW-3" value="нет" style="text;html=1;resizable=0;autosize=1;align=center;verticalAlign=middle;points=[];fillColor=none;strokeColor=none;rounded=0;" parent="n-EAQ4eWrOrmdoL7Q0ur-1" vertex="1">
          <mxGeometry x="775" y="280" width="30" height="20" as="geometry"/>
        </mxCell>
        <mxCell id="HBdPVVHpOy0N1GLrJOeW-4" value="да" style="text;html=1;resizable=0;autosize=1;align=center;verticalAlign=middle;points=[];fillColor=none;strokeColor=none;rounded=0;" parent="n-EAQ4eWrOrmdoL7Q0ur-1" vertex="1">
          <mxGeometry x="685" y="400" width="30" height="20" as="geometry"/>
        </mxCell>
        <mxCell id="HBdPVVHpOy0N1GLrJOeW-5" value="нет" style="text;html=1;resizable=0;autosize=1;align=center;verticalAlign=middle;points=[];fillColor=none;strokeColor=none;rounded=0;" parent="n-EAQ4eWrOrmdoL7Q0ur-1" vertex="1">
          <mxGeometry x="875" y="400" width="30" height="20" as="geometry"/>
        </mxCell>
        <mxCell id="HBdPVVHpOy0N1GLrJOeW-6" value="да" style="text;html=1;resizable=0;autosize=1;align=center;verticalAlign=middle;points=[];fillColor=none;strokeColor=none;rounded=0;" parent="n-EAQ4eWrOrmdoL7Q0ur-1" vertex="1">
          <mxGeometry x="845" y="504" width="30" height="20" as="geometry"/>
        </mxCell>
        <mxCell id="HBdPVVHpOy0N1GLrJOeW-7" value="нет" style="text;html=1;resizable=0;autosize=1;align=center;verticalAlign=middle;points=[];fillColor=none;strokeColor=none;rounded=0;" parent="n-EAQ4eWrOrmdoL7Q0ur-1" vertex="1">
          <mxGeometry x="1035" y="504" width="30" height="20" as="geometry"/>
        </mxCell>
        <mxCell id="HBdPVVHpOy0N1GLrJOeW-8" value="да" style="text;html=1;resizable=0;autosize=1;align=center;verticalAlign=middle;points=[];fillColor=none;strokeColor=none;rounded=0;" parent="n-EAQ4eWrOrmdoL7Q0ur-1" vertex="1">
          <mxGeometry x="1070" y="580" width="30" height="20" as="geometry"/>
        </mxCell>
        <mxCell id="HBdPVVHpOy0N1GLrJOeW-9" value="нет" style="text;html=1;resizable=0;autosize=1;align=center;verticalAlign=middle;points=[];fillColor=none;strokeColor=none;rounded=0;" parent="n-EAQ4eWrOrmdoL7Q0ur-1" vertex="1">
          <mxGeometry x="1260" y="580" width="30" height="20" as="geometry"/>
        </mxCell>
        <mxCell id="HBdPVVHpOy0N1GLrJOeW-11" style="edgeStyle=orthogonalEdgeStyle;rounded=0;orthogonalLoop=1;jettySize=auto;html=1;entryX=0.5;entryY=1;entryDx=0;entryDy=0;" parent="n-EAQ4eWrOrmdoL7Q0ur-1" source="HBdPVVHpOy0N1GLrJOeW-10" target="n-EAQ4eWrOrmdoL7Q0ur-17" edge="1">
          <mxGeometry relative="1" as="geometry"/>
        </mxCell>
        <mxCell id="HBdPVVHpOy0N1GLrJOeW-10" value="&lt;h1&gt;Теорема Пифагора&lt;/h1&gt;&lt;p&gt;сумма квадратов катетов равна квадрату гипотенузы&lt;/p&gt;" style="text;html=1;strokeColor=none;fillColor=none;spacing=5;spacingTop=-20;whiteSpace=wrap;overflow=hidden;rounded=0;" parent="n-EAQ4eWrOrmdoL7Q0ur-1" vertex="1">
          <mxGeometry x="1057.5" y="730" width="245" height="120" as="geometry"/>
        </mxCell>
        <mxCell id="HBdPVVHpOy0N1GLrJOeW-12" value="вывод" style="text;html=1;resizable=0;autosize=1;align=center;verticalAlign=middle;points=[];fillColor=none;strokeColor=none;rounded=0;" parent="n-EAQ4eWrOrmdoL7Q0ur-1" vertex="1">
          <mxGeometry x="130" y="680" width="50" height="20" as="geometry"/>
        </mxCell>
        <mxCell id="HBdPVVHpOy0N1GLrJOeW-13" value="вывод" style="text;html=1;resizable=0;autosize=1;align=center;verticalAlign=middle;points=[];fillColor=none;strokeColor=none;rounded=0;" parent="n-EAQ4eWrOrmdoL7Q0ur-1" vertex="1">
          <mxGeometry x="320" y="680" width="50" height="20" as="geometry"/>
        </mxCell>
        <mxCell id="HBdPVVHpOy0N1GLrJOeW-14" value="вывод" style="text;html=1;resizable=0;autosize=1;align=center;verticalAlign=middle;points=[];fillColor=none;strokeColor=none;rounded=0;" parent="n-EAQ4eWrOrmdoL7Q0ur-1" vertex="1">
          <mxGeometry x="470" y="680" width="50" height="20" as="geometry"/>
        </mxCell>
        <mxCell id="HBdPVVHpOy0N1GLrJOeW-15" value="вывод" style="text;html=1;resizable=0;autosize=1;align=center;verticalAlign=middle;points=[];fillColor=none;strokeColor=none;rounded=0;" parent="n-EAQ4eWrOrmdoL7Q0ur-1" vertex="1">
          <mxGeometry x="638" y="680" width="50" height="20" as="geometry"/>
        </mxCell>
        <mxCell id="HBdPVVHpOy0N1GLrJOeW-16" value="вывод" style="text;html=1;resizable=0;autosize=1;align=center;verticalAlign=middle;points=[];fillColor=none;strokeColor=none;rounded=0;" parent="n-EAQ4eWrOrmdoL7Q0ur-1" vertex="1">
          <mxGeometry x="795" y="680" width="50" height="20" as="geometry"/>
        </mxCell>
        <mxCell id="HBdPVVHpOy0N1GLrJOeW-17" value="вывод" style="text;html=1;resizable=0;autosize=1;align=center;verticalAlign=middle;points=[];fillColor=none;strokeColor=none;rounded=0;" parent="n-EAQ4eWrOrmdoL7Q0ur-1" vertex="1">
          <mxGeometry x="1350" y="680" width="50" height="20" as="geometry"/>
        </mxCell>
        <mxCell id="HBdPVVHpOy0N1GLrJOeW-18" value="&lt;font style=&quot;font-size: 18px&quot;&gt;Треугольником будем считать фигуру с тремя сторонами и&amp;nbsp; высотой больше нуля. И добавим проверку на прямоугольный треугольник&lt;/font&gt;" style="text;html=1;strokeColor=none;fillColor=none;align=center;verticalAlign=middle;whiteSpace=wrap;rounded=0;" parent="n-EAQ4eWrOrmdoL7Q0ur-1" vertex="1">
          <mxGeometry x="923" y="140" width="320" height="180" as="geometry"/>
        </mxCell>
        <mxCell id="VIgurt8Zd1j7ITeIexkn-0" value="&lt;h3 style=&quot;box-sizing: border-box ; font-family: &amp;#34;roboto&amp;#34; , &amp;#34;san francisco&amp;#34; , &amp;#34;helvetica neue&amp;#34; , &amp;#34;helvetica&amp;#34; , &amp;#34;arial&amp;#34; ; font-weight: 500 ; line-height: 24px ; color: rgb(80 , 102 , 123) ; margin-top: 20px ; margin-bottom: 10px ; font-size: 17px ; background-color: rgb(255 , 255 , 255)&quot;&gt;6. По длинам трех отрезков, введенных пользователем, определить возможность существования треугольника, составленного из этих отрезков. Если такой треугольник существует, то определить, является ли он разносторонним, равнобедренным или равносторонним.&lt;/h3&gt;" style="text;html=1;strokeColor=none;fillColor=none;spacing=5;spacingTop=-20;whiteSpace=wrap;overflow=hidden;rounded=0;" vertex="1" parent="n-EAQ4eWrOrmdoL7Q0ur-1">
          <mxGeometry x="650" y="30" width="670" height="170" as="geometry"/>
        </mxCell>
      </root>
    </mxGraphModel>
  </diagram>
  <diagram id="lMw2H5SOiThOqxCA0CnH" name="Task 1-7">
    <mxGraphModel dx="1408" dy="1917" grid="1" gridSize="10" guides="1" tooltips="1" connect="1" arrows="1" fold="1" page="1" pageScale="1" pageWidth="1654" pageHeight="1169" math="0" shadow="0">
      <root>
        <mxCell id="X7EQB9KmgxynEelyKNJ5-0"/>
        <mxCell id="X7EQB9KmgxynEelyKNJ5-1" parent="X7EQB9KmgxynEelyKNJ5-0"/>
        <mxCell id="X7EQB9KmgxynEelyKNJ5-8" value="" style="edgeStyle=orthogonalEdgeStyle;rounded=0;orthogonalLoop=1;jettySize=auto;html=1;" edge="1" parent="X7EQB9KmgxynEelyKNJ5-1" source="X7EQB9KmgxynEelyKNJ5-2" target="X7EQB9KmgxynEelyKNJ5-3">
          <mxGeometry relative="1" as="geometry"/>
        </mxCell>
        <mxCell id="X7EQB9KmgxynEelyKNJ5-2" value="Начало" style="ellipse;whiteSpace=wrap;html=1;" vertex="1" parent="X7EQB9KmgxynEelyKNJ5-1">
          <mxGeometry x="610" y="-60" width="120" height="80" as="geometry"/>
        </mxCell>
        <mxCell id="X7EQB9KmgxynEelyKNJ5-9" style="edgeStyle=orthogonalEdgeStyle;rounded=0;orthogonalLoop=1;jettySize=auto;html=1;entryX=0.5;entryY=0;entryDx=0;entryDy=0;" edge="1" parent="X7EQB9KmgxynEelyKNJ5-1" source="X7EQB9KmgxynEelyKNJ5-3" target="X7EQB9KmgxynEelyKNJ5-4">
          <mxGeometry relative="1" as="geometry"/>
        </mxCell>
        <mxCell id="X7EQB9KmgxynEelyKNJ5-3" value="Ввод:&lt;br&gt;Введите год" style="shape=parallelogram;perimeter=parallelogramPerimeter;whiteSpace=wrap;html=1;" vertex="1" parent="X7EQB9KmgxynEelyKNJ5-1">
          <mxGeometry x="610" y="60" width="120" height="60" as="geometry"/>
        </mxCell>
        <mxCell id="CiTQyCSHlePww5pDrdMb-0" style="edgeStyle=orthogonalEdgeStyle;rounded=0;orthogonalLoop=1;jettySize=auto;html=1;" edge="1" parent="X7EQB9KmgxynEelyKNJ5-1" source="X7EQB9KmgxynEelyKNJ5-4">
          <mxGeometry relative="1" as="geometry">
            <mxPoint x="440" y="400" as="targetPoint"/>
          </mxGeometry>
        </mxCell>
        <mxCell id="CiTQyCSHlePww5pDrdMb-1" style="edgeStyle=orthogonalEdgeStyle;rounded=0;orthogonalLoop=1;jettySize=auto;html=1;entryX=0.5;entryY=0;entryDx=0;entryDy=0;" edge="1" parent="X7EQB9KmgxynEelyKNJ5-1" source="X7EQB9KmgxynEelyKNJ5-4" target="98CcORsUK9v4pZzAUTSn-0">
          <mxGeometry relative="1" as="geometry"/>
        </mxCell>
        <mxCell id="X7EQB9KmgxynEelyKNJ5-4" value="год % 400 == 0" style="rhombus;whiteSpace=wrap;html=1;" vertex="1" parent="X7EQB9KmgxynEelyKNJ5-1">
          <mxGeometry x="570" y="160" width="200" height="80" as="geometry"/>
        </mxCell>
        <mxCell id="X7EQB9KmgxynEelyKNJ5-12" style="edgeStyle=orthogonalEdgeStyle;rounded=0;orthogonalLoop=1;jettySize=auto;html=1;exitX=0.5;exitY=1;exitDx=0;exitDy=0;entryX=0.5;entryY=0;entryDx=0;entryDy=0;" edge="1" parent="X7EQB9KmgxynEelyKNJ5-1" source="X7EQB9KmgxynEelyKNJ5-5" target="X7EQB9KmgxynEelyKNJ5-7">
          <mxGeometry relative="1" as="geometry">
            <Array as="points">
              <mxPoint x="440" y="480"/>
              <mxPoint x="680" y="480"/>
            </Array>
          </mxGeometry>
        </mxCell>
        <mxCell id="X7EQB9KmgxynEelyKNJ5-5" value="Вывод&lt;br&gt;Високосный" style="shape=parallelogram;perimeter=parallelogramPerimeter;whiteSpace=wrap;html=1;" vertex="1" parent="X7EQB9KmgxynEelyKNJ5-1">
          <mxGeometry x="380" y="404.5" width="120" height="60" as="geometry"/>
        </mxCell>
        <mxCell id="CiTQyCSHlePww5pDrdMb-10" style="edgeStyle=orthogonalEdgeStyle;rounded=0;orthogonalLoop=1;jettySize=auto;html=1;" edge="1" parent="X7EQB9KmgxynEelyKNJ5-1" source="X7EQB9KmgxynEelyKNJ5-6" target="X7EQB9KmgxynEelyKNJ5-7">
          <mxGeometry relative="1" as="geometry">
            <Array as="points">
              <mxPoint x="1182" y="480"/>
              <mxPoint x="680" y="480"/>
            </Array>
          </mxGeometry>
        </mxCell>
        <mxCell id="X7EQB9KmgxynEelyKNJ5-6" value="Вывод&lt;br&gt;Невисокосный" style="shape=parallelogram;perimeter=parallelogramPerimeter;whiteSpace=wrap;html=1;" vertex="1" parent="X7EQB9KmgxynEelyKNJ5-1">
          <mxGeometry x="1121.5" y="404.5" width="120" height="60" as="geometry"/>
        </mxCell>
        <mxCell id="X7EQB9KmgxynEelyKNJ5-7" value="Конец" style="ellipse;whiteSpace=wrap;html=1;" vertex="1" parent="X7EQB9KmgxynEelyKNJ5-1">
          <mxGeometry x="620" y="510" width="120" height="80" as="geometry"/>
        </mxCell>
        <mxCell id="Fmy-MnjeN22kz5pEDXYo-0" value="да" style="text;html=1;resizable=0;autosize=1;align=center;verticalAlign=middle;points=[];fillColor=none;strokeColor=none;rounded=0;" vertex="1" parent="X7EQB9KmgxynEelyKNJ5-1">
          <mxGeometry x="560" y="160" width="30" height="20" as="geometry"/>
        </mxCell>
        <mxCell id="Fmy-MnjeN22kz5pEDXYo-1" value="нет" style="text;html=1;resizable=0;autosize=1;align=center;verticalAlign=middle;points=[];fillColor=none;strokeColor=none;rounded=0;" vertex="1" parent="X7EQB9KmgxynEelyKNJ5-1">
          <mxGeometry x="750" y="160" width="30" height="20" as="geometry"/>
        </mxCell>
        <mxCell id="CiTQyCSHlePww5pDrdMb-2" style="edgeStyle=orthogonalEdgeStyle;rounded=0;orthogonalLoop=1;jettySize=auto;html=1;entryX=0.5;entryY=0;entryDx=0;entryDy=0;" edge="1" parent="X7EQB9KmgxynEelyKNJ5-1" source="98CcORsUK9v4pZzAUTSn-0" target="98CcORsUK9v4pZzAUTSn-3">
          <mxGeometry relative="1" as="geometry"/>
        </mxCell>
        <mxCell id="CiTQyCSHlePww5pDrdMb-4" style="edgeStyle=orthogonalEdgeStyle;rounded=0;orthogonalLoop=1;jettySize=auto;html=1;entryX=0.5;entryY=0;entryDx=0;entryDy=0;" edge="1" parent="X7EQB9KmgxynEelyKNJ5-1" source="98CcORsUK9v4pZzAUTSn-0" target="CiTQyCSHlePww5pDrdMb-3">
          <mxGeometry relative="1" as="geometry">
            <Array as="points">
              <mxPoint x="1050" y="290"/>
            </Array>
          </mxGeometry>
        </mxCell>
        <mxCell id="98CcORsUK9v4pZzAUTSn-0" value="год % 100 == 0&amp;nbsp;" style="rhombus;whiteSpace=wrap;html=1;" vertex="1" parent="X7EQB9KmgxynEelyKNJ5-1">
          <mxGeometry x="780" y="250" width="200" height="80" as="geometry"/>
        </mxCell>
        <mxCell id="98CcORsUK9v4pZzAUTSn-1" value="да" style="text;html=1;resizable=0;autosize=1;align=center;verticalAlign=middle;points=[];fillColor=none;strokeColor=none;rounded=0;" vertex="1" parent="X7EQB9KmgxynEelyKNJ5-1">
          <mxGeometry x="772.5" y="250" width="30" height="20" as="geometry"/>
        </mxCell>
        <mxCell id="98CcORsUK9v4pZzAUTSn-2" value="нет" style="text;html=1;resizable=0;autosize=1;align=center;verticalAlign=middle;points=[];fillColor=none;strokeColor=none;rounded=0;" vertex="1" parent="X7EQB9KmgxynEelyKNJ5-1">
          <mxGeometry x="957.5" y="250" width="30" height="20" as="geometry"/>
        </mxCell>
        <mxCell id="CiTQyCSHlePww5pDrdMb-8" style="edgeStyle=orthogonalEdgeStyle;rounded=0;orthogonalLoop=1;jettySize=auto;html=1;" edge="1" parent="X7EQB9KmgxynEelyKNJ5-1" source="98CcORsUK9v4pZzAUTSn-3">
          <mxGeometry relative="1" as="geometry">
            <mxPoint x="680" y="511" as="targetPoint"/>
            <Array as="points">
              <mxPoint x="680" y="511"/>
            </Array>
          </mxGeometry>
        </mxCell>
        <mxCell id="98CcORsUK9v4pZzAUTSn-3" value="Вывод&lt;br&gt;Невисокосный" style="shape=parallelogram;perimeter=parallelogramPerimeter;whiteSpace=wrap;html=1;" vertex="1" parent="X7EQB9KmgxynEelyKNJ5-1">
          <mxGeometry x="620" y="404.5" width="120" height="60" as="geometry"/>
        </mxCell>
        <mxCell id="98CcORsUK9v4pZzAUTSn-9" value="7. Определить, является ли год, который ввел пользователь, високосным или не високосным." style="text;html=1;" vertex="1" parent="X7EQB9KmgxynEelyKNJ5-1">
          <mxGeometry x="20" y="-90" width="550" height="30" as="geometry"/>
        </mxCell>
        <mxCell id="98CcORsUK9v4pZzAUTSn-13" value="&lt;h1&gt;Правила&lt;/h1&gt;&lt;p&gt;&lt;span style=&quot;white-space: nowrap&quot;&gt;Год, номер которого кратен 400,&amp;nbsp;— високосный;&lt;/span&gt;&lt;br style=&quot;white-space: nowrap&quot;&gt;&lt;span style=&quot;white-space: nowrap&quot;&gt;Остальные годы, номер которых кратен 100,&amp;nbsp;— невисокосные;&lt;/span&gt;&lt;br style=&quot;white-space: nowrap&quot;&gt;&lt;span style=&quot;white-space: nowrap&quot;&gt;Остальные годы, номер которых кратен 4,&amp;nbsp;— високосные.&lt;/span&gt;&lt;br&gt;&lt;/p&gt;" style="text;html=1;strokeColor=none;fillColor=none;spacing=5;spacingTop=-20;whiteSpace=wrap;overflow=hidden;rounded=0;" vertex="1" parent="X7EQB9KmgxynEelyKNJ5-1">
          <mxGeometry x="40" y="-30" width="370" height="120" as="geometry"/>
        </mxCell>
        <mxCell id="CiTQyCSHlePww5pDrdMb-6" style="edgeStyle=orthogonalEdgeStyle;rounded=0;orthogonalLoop=1;jettySize=auto;html=1;exitX=0;exitY=0.5;exitDx=0;exitDy=0;entryX=0.5;entryY=0;entryDx=0;entryDy=0;" edge="1" parent="X7EQB9KmgxynEelyKNJ5-1" source="CiTQyCSHlePww5pDrdMb-3" target="CiTQyCSHlePww5pDrdMb-5">
          <mxGeometry relative="1" as="geometry"/>
        </mxCell>
        <mxCell id="CiTQyCSHlePww5pDrdMb-7" style="edgeStyle=orthogonalEdgeStyle;rounded=0;orthogonalLoop=1;jettySize=auto;html=1;entryX=0.75;entryY=0;entryDx=0;entryDy=0;exitX=1;exitY=0.5;exitDx=0;exitDy=0;" edge="1" parent="X7EQB9KmgxynEelyKNJ5-1" source="CiTQyCSHlePww5pDrdMb-3" target="X7EQB9KmgxynEelyKNJ5-6">
          <mxGeometry relative="1" as="geometry">
            <mxPoint x="1100.25" y="365" as="sourcePoint"/>
          </mxGeometry>
        </mxCell>
        <mxCell id="CiTQyCSHlePww5pDrdMb-3" value="год % 4 == 0&amp;nbsp;" style="rhombus;whiteSpace=wrap;html=1;" vertex="1" parent="X7EQB9KmgxynEelyKNJ5-1">
          <mxGeometry x="950" y="324.5" width="200" height="80" as="geometry"/>
        </mxCell>
        <mxCell id="CiTQyCSHlePww5pDrdMb-9" style="edgeStyle=orthogonalEdgeStyle;rounded=0;orthogonalLoop=1;jettySize=auto;html=1;" edge="1" parent="X7EQB9KmgxynEelyKNJ5-1" source="CiTQyCSHlePww5pDrdMb-5">
          <mxGeometry relative="1" as="geometry">
            <mxPoint x="680" y="510" as="targetPoint"/>
            <Array as="points">
              <mxPoint x="887" y="480"/>
              <mxPoint x="680" y="480"/>
            </Array>
          </mxGeometry>
        </mxCell>
        <mxCell id="CiTQyCSHlePww5pDrdMb-5" value="Вывод&lt;br&gt;Високосный" style="shape=parallelogram;perimeter=parallelogramPerimeter;whiteSpace=wrap;html=1;" vertex="1" parent="X7EQB9KmgxynEelyKNJ5-1">
          <mxGeometry x="827" y="404.5" width="120" height="60" as="geometry"/>
        </mxCell>
        <mxCell id="CiTQyCSHlePww5pDrdMb-11" value="да" style="text;html=1;resizable=0;autosize=1;align=center;verticalAlign=middle;points=[];fillColor=none;strokeColor=none;rounded=0;" vertex="1" parent="X7EQB9KmgxynEelyKNJ5-1">
          <mxGeometry x="942.5" y="330" width="30" height="20" as="geometry"/>
        </mxCell>
        <mxCell id="CiTQyCSHlePww5pDrdMb-12" value="нет" style="text;html=1;resizable=0;autosize=1;align=center;verticalAlign=middle;points=[];fillColor=none;strokeColor=none;rounded=0;" vertex="1" parent="X7EQB9KmgxynEelyKNJ5-1">
          <mxGeometry x="1127.5" y="330" width="30" height="20" as="geometry"/>
        </mxCell>
      </root>
    </mxGraphModel>
  </diagram>
</mxfile>
